<svg width="67" height="58" viewBox="0 0 67 58" fill="none" xmlns="http://www.w3.org/2000/svg">
<path d="M0.54834 0.144043H22.4371C22.4371 0.144043 31.63 17.1763 38.2581 27.6444C38.5373 28.0853 38.6748 28.3453 38.975 28.7722C39.2553 29.1709 39.4131 29.3963 39.7366 29.7609C40.0408 30.1038 39.9869 30.0701 40.3354 30.4551C40.5257 30.6654 40.6902 30.8243 41.1 31.0893C41.471 31.3291 42.1066 31.4903 42.5886 31.3276C42.9619 31.2017 43.0629 31.1547 43.3802 30.9768C44.4914 30.354 45.6325 28.0858 45.6325 28.0858L58.3906 4.81785H47.2029V0.144994L66.3608 0.144043L51.0061 26.7942C51.0061 26.7942 49.4438 29.2994 48.3247 31.2443C48.1423 31.5613 47.3634 32.7078 47.0601 33.0943C46.4868 33.825 46.1665 34.2616 45.6325 34.7887C45.121 35.2936 44.6162 35.5409 44.2579 35.6848C43.7038 35.9073 43.1111 36.0194 42.5159 36.068C42.0089 36.1093 41.6673 36.1359 41.1631 36.068C40.5343 35.9833 40.4892 35.9616 39.7366 35.6848C39.4201 35.5684 38.8915 35.2543 38.3933 34.8951C37.8399 34.496 37.4625 34.1401 36.8403 33.482C36.2926 32.9026 36.051 32.5591 35.608 31.8962C35.1431 31.2003 34.7814 30.8154 34.3422 30.103C28.3743 20.4232 19.9 4.81785 19.9 4.81785H8.6303L33.4983 48.0406L38.2581 39.8352C38.2581 39.8352 38.9106 40.7251 41.2001 40.6509C43.3042 40.5826 43.8103 39.8352 43.8103 39.8352L33.4983 57.384L5.10875 8.16941L3.20196 4.81785L0.54834 0.144043Z" fill="white"/>
<circle cx="42.0366" cy="14.686" r="4.78514" fill="white"/>
</svg>
