<svg width="849" height="178" viewBox="0 0 849 178" fill="none" xmlns="http://www.w3.org/2000/svg">
<path d="M292.054 150.029L247.575 30.2773H266.051L302.318 132.237L338.928 30.2773H357.062L312.583 150.029H292.054Z" fill="white"/>
<path d="M388.782 152.082C382.053 152.082 376.179 150.713 371.161 147.976C366.257 145.239 362.436 141.133 359.699 135.659C357.076 130.184 355.765 123.284 355.765 114.959V63.8077H372.872V113.077C372.872 121.174 374.64 127.276 378.175 131.382C381.711 135.488 386.786 137.54 393.401 137.54C397.849 137.54 401.84 136.457 405.376 134.29C409.025 132.123 411.877 128.987 413.93 124.881C415.982 120.775 417.009 115.757 417.009 109.827V63.8077H434.116V150.029H418.891L417.693 135.316C415.07 140.563 411.249 144.668 406.231 147.634C401.213 150.599 395.397 152.082 388.782 152.082Z" fill="white"/>
<path d="M486.973 152.082C478.762 152.082 471.463 150.2 465.076 146.436C458.689 142.673 453.671 137.426 450.022 130.697C446.486 123.969 444.718 116.156 444.718 107.26C444.718 98.1365 446.486 90.2101 450.022 83.4812C453.671 76.6383 458.689 71.335 465.076 67.5714C471.463 63.6937 478.876 61.7549 487.316 61.7549C495.755 61.7549 502.997 63.6367 509.042 67.4003C515.087 71.1639 519.763 76.1821 523.07 82.4548C526.377 88.6134 528.031 95.4563 528.031 102.984C528.031 104.124 527.974 105.379 527.86 106.747C527.86 108.002 527.803 109.427 527.689 111.024H457.207V98.8778H510.924C510.582 91.6927 508.187 86.1043 503.739 82.1126C499.291 78.0068 493.759 75.954 487.145 75.954C482.468 75.954 478.192 77.0374 474.314 79.2044C470.436 81.2572 467.3 84.3366 464.905 88.4423C462.624 92.434 461.483 97.5092 461.483 103.668V108.458C461.483 114.845 462.624 120.262 464.905 124.71C467.3 129.044 470.436 132.351 474.314 134.632C478.192 136.799 482.411 137.883 486.973 137.883C492.448 137.883 496.953 136.685 500.488 134.29C504.024 131.895 506.647 128.645 508.358 124.539H525.465C523.982 129.785 521.473 134.518 517.938 138.738C514.402 142.844 510.011 146.094 504.765 148.489C499.633 150.884 493.702 152.082 486.973 152.082Z" fill="white"/>
<path d="M575.061 150.029V30.2773H619.369C627.694 30.2773 634.651 31.6459 640.24 34.3831C645.828 37.0062 649.991 40.6558 652.728 45.3318C655.579 49.8938 657.005 55.083 657.005 60.8995C657.005 66.9441 655.693 72.0193 653.07 76.125C650.447 80.2308 646.968 83.4242 642.635 85.7052C638.415 87.8721 633.853 89.1266 628.949 89.4688L631.344 87.758C636.59 87.8721 641.38 89.2977 645.714 92.0349C650.048 94.658 653.469 98.1935 655.978 102.641C658.487 107.089 659.742 111.993 659.742 117.354C659.742 123.512 658.259 129.101 655.294 134.119C652.329 139.023 647.938 142.901 642.121 145.752C636.305 148.603 629.177 150.029 620.737 150.029H575.061ZM592.168 135.83H618.513C626.04 135.83 631.857 134.119 635.963 130.697C640.183 127.162 642.292 122.201 642.292 115.814C642.292 109.541 640.125 104.523 635.792 100.76C631.572 96.996 625.698 95.1142 618.171 95.1142H592.168V135.83ZM592.168 81.9415H617.487C624.672 81.9415 630.146 80.2878 633.91 76.9804C637.673 73.5589 639.555 68.8829 639.555 62.9524C639.555 57.2499 637.673 52.745 633.91 49.4376C630.146 46.0161 624.501 44.3054 616.974 44.3054H592.168V81.9415Z" fill="white"/>
<path d="M677.064 150.029V63.8077H694.172V150.029H677.064ZM685.789 47.5558C682.482 47.5558 679.745 46.5293 677.578 44.4764C675.525 42.4235 674.498 39.8004 674.498 36.607C674.498 33.5277 675.525 31.0186 677.578 29.0798C679.745 27.0269 682.482 26.0005 685.789 26.0005C688.983 26.0005 691.663 27.0269 693.83 29.0798C695.997 31.0186 697.08 33.5277 697.08 36.607C697.08 39.8004 695.997 42.4235 693.83 44.4764C691.663 46.5293 688.983 47.5558 685.789 47.5558Z" fill="white"/>
<path d="M750.797 150.029C745.323 150.029 740.59 149.173 736.598 147.463C732.606 145.752 729.527 142.901 727.36 138.909C725.193 134.917 724.11 129.5 724.11 122.657V78.349H709.226V63.8077H724.11L726.163 42.2525H741.217V63.8077H765.681V78.349H741.217V122.828C741.217 127.732 742.243 131.097 744.296 132.921C746.349 134.632 749.885 135.488 754.903 135.488H764.825V150.029H750.797Z" fill="white"/>
<path d="M814.483 152.082C807.184 152.082 800.797 150.884 795.323 148.489C789.849 146.094 785.515 142.73 782.321 138.396C779.128 134.062 777.189 128.987 776.505 123.17H793.954C794.525 125.907 795.608 128.417 797.205 130.697C798.916 132.978 801.197 134.803 804.048 136.172C807.013 137.54 810.492 138.225 814.483 138.225C818.247 138.225 821.326 137.712 823.721 136.685C826.23 135.545 828.055 134.062 829.196 132.237C830.336 130.298 830.906 128.245 830.906 126.079C830.906 122.885 830.108 120.49 828.511 118.893C827.029 117.183 824.748 115.871 821.668 114.959C818.703 113.932 815.111 113.02 810.891 112.222C806.899 111.537 803.021 110.625 799.258 109.484C795.608 108.23 792.301 106.69 789.335 104.865C786.484 103.041 784.203 100.76 782.493 98.0224C780.782 95.1712 779.926 91.6927 779.926 87.587C779.926 82.6829 781.238 78.292 783.861 74.4143C786.484 70.4226 790.191 67.3433 794.981 65.1763C799.885 62.8953 805.644 61.7549 812.259 61.7549C821.839 61.7549 829.538 64.0358 835.354 68.5978C841.171 73.1598 844.592 79.6035 845.619 87.9291H829.025C828.568 84.0514 826.858 81.0862 823.892 79.0333C820.927 76.8664 816.992 75.7829 812.088 75.7829C807.184 75.7829 803.421 76.7523 800.797 78.6911C798.174 80.63 796.863 83.1961 796.863 86.3894C796.863 88.4423 797.604 90.2671 799.087 91.8638C800.569 93.4605 802.736 94.8291 805.587 95.9696C808.553 96.996 812.145 97.9654 816.365 98.8778C822.41 100.018 827.827 101.444 832.617 103.155C837.407 104.865 841.228 107.374 844.079 110.682C846.93 113.989 848.356 118.722 848.356 124.881C848.47 130.241 847.101 134.974 844.25 139.08C841.513 143.186 837.578 146.379 832.446 148.66C827.428 150.941 821.44 152.082 814.483 152.082Z" fill="white"/>
<path d="M0.345215 0.836426H67.8054C67.8054 0.836426 96.1375 53.3291 116.565 85.5911C117.425 86.9501 117.849 87.7512 118.774 89.0669C119.638 90.2956 120.125 90.9905 121.121 92.114C122.059 93.1709 121.893 93.067 122.967 94.2537C123.553 94.9018 124.06 95.3915 125.323 96.2081C126.467 96.9474 128.426 97.444 129.911 96.9428C131.062 96.5547 131.373 96.4097 132.351 95.8616C135.776 93.942 139.292 86.9516 139.292 86.9516L178.612 15.2409H144.132V0.839355L203.176 0.836426L155.854 82.9711C155.854 82.9711 151.039 90.6918 147.59 96.686C147.028 97.6627 144.627 101.196 143.692 102.388C141.925 104.639 140.938 105.985 139.292 107.61C137.716 109.166 136.16 109.928 135.056 110.371C133.348 111.057 131.522 111.403 129.687 111.552C128.124 111.68 127.072 111.762 125.518 111.552C123.58 111.291 123.441 111.224 121.121 110.371C120.146 110.012 118.517 109.045 116.982 107.937C115.276 106.708 114.113 105.611 112.195 103.582C110.507 101.797 109.763 100.738 108.398 98.695C106.965 96.5504 105.85 95.364 104.496 93.1686C86.1035 63.3357 59.9861 15.2409 59.9861 15.2409H25.2534L101.895 148.451L116.565 123.163C116.565 123.163 118.576 125.905 125.632 125.677C132.117 125.466 133.676 123.163 133.676 123.163L101.895 177.247L14.4002 25.5702L8.52356 15.2409L0.345215 0.836426Z" fill="white"/>
<circle cx="128.21" cy="45.6543" r="14.7476" fill="white"/>
</svg>
