<svg width="849" height="178" viewBox="0 0 849 178" fill="none" xmlns="http://www.w3.org/2000/svg">
<path d="M292.054 150.096L247.575 30.3442H266.051L302.318 132.304L338.928 30.3442H357.062L312.583 150.096H292.054Z" fill="#0b0b0b"/>
<path d="M388.782 152.149C382.053 152.149 376.179 150.78 371.161 148.043C366.257 145.306 362.436 141.2 359.699 135.726C357.076 130.251 355.765 123.351 355.765 115.026V63.8746H372.872V113.144C372.872 121.241 374.64 127.343 378.175 131.449C381.711 135.554 386.786 137.607 393.401 137.607C397.849 137.607 401.84 136.524 405.376 134.357C409.025 132.19 411.877 129.054 413.93 124.948C415.982 120.842 417.009 115.824 417.009 109.893V63.8746H434.116V150.096H418.891L417.693 135.383C415.07 140.63 411.249 144.735 406.231 147.701C401.213 150.666 395.397 152.149 388.782 152.149Z" fill="#0b0b0b"/>
<path d="M486.973 152.149C478.762 152.149 471.463 150.267 465.076 146.503C458.689 142.74 453.671 137.493 450.022 130.764C446.486 124.035 444.718 116.223 444.718 107.327C444.718 98.2034 446.486 90.277 450.022 83.5481C453.671 76.7051 458.689 71.4019 465.076 67.6383C471.463 63.7606 478.876 61.8218 487.316 61.8218C495.755 61.8218 502.997 63.7036 509.042 67.4672C515.087 71.2308 519.763 76.249 523.07 82.5217C526.377 88.6803 528.031 95.5232 528.031 103.05C528.031 104.191 527.974 105.445 527.86 106.814C527.86 108.069 527.803 109.494 527.689 111.091H457.207V98.9447H510.924C510.582 91.7596 508.187 86.1712 503.739 82.1795C499.291 78.0737 493.759 76.0209 487.145 76.0209C482.468 76.0209 478.192 77.1043 474.314 79.2712C470.436 81.3241 467.3 84.4035 464.905 88.5092C462.624 92.5009 461.483 97.5761 461.483 103.735V108.525C461.483 114.912 462.624 120.329 464.905 124.777C467.3 129.111 470.436 132.418 474.314 134.699C478.192 136.866 482.411 137.949 486.973 137.949C492.448 137.949 496.953 136.752 500.488 134.357C504.024 131.962 506.647 128.712 508.358 124.606H525.465C523.982 129.852 521.473 134.585 517.938 138.805C514.402 142.911 510.011 146.161 504.765 148.556C499.633 150.951 493.702 152.149 486.973 152.149Z" fill="#0b0b0b"/>
<path d="M575.061 150.096V30.3442H619.369C627.694 30.3442 634.651 31.7128 640.24 34.45C645.828 37.0731 649.991 40.7227 652.728 45.3987C655.579 49.9607 657.005 55.1499 657.005 60.9664C657.005 67.011 655.693 72.0862 653.07 76.1919C650.447 80.2977 646.968 83.4911 642.635 85.772C638.415 87.939 633.853 89.1935 628.949 89.5357L631.344 87.8249C636.59 87.939 641.38 89.3646 645.714 92.1018C650.048 94.7249 653.469 98.2604 655.978 102.708C658.487 107.156 659.742 112.06 659.742 117.421C659.742 123.579 658.259 129.168 655.294 134.186C652.329 139.09 647.938 142.968 642.121 145.819C636.305 148.67 629.177 150.096 620.737 150.096H575.061ZM592.168 135.897H618.513C626.04 135.897 631.857 134.186 635.963 130.764C640.183 127.229 642.292 122.268 642.292 115.881C642.292 109.608 640.125 104.59 635.792 100.827C631.572 97.0629 625.698 95.1811 618.171 95.1811H592.168V135.897ZM592.168 82.0084H617.487C624.672 82.0084 630.146 80.3547 633.91 77.0473C637.673 73.6258 639.555 68.9498 639.555 63.0193C639.555 57.3168 637.673 52.8119 633.91 49.5045C630.146 46.083 624.501 44.3722 616.974 44.3722H592.168V82.0084Z" fill="#0b0b0b"/>
<path d="M677.064 150.096V63.8746H694.172V150.096H677.064ZM685.789 47.6226C682.482 47.6226 679.745 46.5962 677.578 44.5433C675.525 42.4904 674.498 39.8673 674.498 36.6739C674.498 33.5946 675.525 31.0855 677.578 29.1467C679.745 27.0938 682.482 26.0674 685.789 26.0674C688.983 26.0674 691.663 27.0938 693.83 29.1467C695.997 31.0855 697.08 33.5946 697.08 36.6739C697.08 39.8673 695.997 42.4904 693.83 44.5433C691.663 46.5962 688.983 47.6226 685.789 47.6226Z" fill="#0b0b0b"/>
<path d="M750.797 150.096C745.323 150.096 740.59 149.24 736.598 147.53C732.606 145.819 729.527 142.968 727.36 138.976C725.193 134.984 724.11 129.567 724.11 122.724V78.4159H709.226V63.8746H724.11L726.163 42.3194H741.217V63.8746H765.681V78.4159H741.217V122.895C741.217 127.799 742.243 131.164 744.296 132.988C746.349 134.699 749.885 135.554 754.903 135.554H764.825V150.096H750.797Z" fill="#0b0b0b"/>
<path d="M814.483 152.149C807.184 152.149 800.797 150.951 795.323 148.556C789.849 146.161 785.515 142.797 782.321 138.463C779.128 134.129 777.189 129.054 776.505 123.237H793.954C794.525 125.974 795.608 128.483 797.205 130.764C798.916 133.045 801.197 134.87 804.048 136.239C807.013 137.607 810.492 138.292 814.483 138.292C818.247 138.292 821.326 137.778 823.721 136.752C826.23 135.611 828.055 134.129 829.196 132.304C830.336 130.365 830.906 128.312 830.906 126.145C830.906 122.952 830.108 120.557 828.511 118.96C827.029 117.25 824.748 115.938 821.668 115.026C818.703 113.999 815.111 113.087 810.891 112.288C806.899 111.604 803.021 110.692 799.258 109.551C795.608 108.297 792.301 106.757 789.335 104.932C786.484 103.108 784.203 100.827 782.493 98.0893C780.782 95.2381 779.926 91.7596 779.926 87.6539C779.926 82.7497 781.238 78.3589 783.861 74.4812C786.484 70.4895 790.191 67.4102 794.981 65.2432C799.885 62.9622 805.644 61.8218 812.259 61.8218C821.839 61.8218 829.538 64.1027 835.354 68.6647C841.171 73.2267 844.592 79.6704 845.619 87.996H829.025C828.568 84.1183 826.858 81.1531 823.892 79.1002C820.927 76.9332 816.992 75.8498 812.088 75.8498C807.184 75.8498 803.421 76.8192 800.797 78.758C798.174 80.6969 796.863 83.263 796.863 86.4563C796.863 88.5092 797.604 90.334 799.087 91.9307C800.569 93.5274 802.736 94.896 805.587 96.0365C808.553 97.0629 812.145 98.0323 816.365 98.9447C822.41 100.085 827.827 101.511 832.617 103.222C837.407 104.932 841.228 107.441 844.079 110.749C846.93 114.056 848.356 118.789 848.356 124.948C848.47 130.308 847.101 135.041 844.25 139.147C841.513 143.253 837.578 146.446 832.446 148.727C827.428 151.008 821.44 152.149 814.483 152.149Z" fill="#0b0b0b"/>
<path d="M0.345215 0.90332H67.8054C67.8054 0.90332 96.1375 53.396 116.565 85.658C117.425 87.017 117.849 87.8181 118.774 89.1338C119.638 90.3625 120.125 91.0574 121.121 92.1809C122.059 93.2378 121.893 93.1339 122.967 94.3206C123.553 94.9687 124.06 95.4584 125.323 96.275C126.467 97.0143 128.426 97.5109 129.911 97.0097C131.062 96.6216 131.373 96.4766 132.351 95.9285C135.776 94.0089 139.292 87.0185 139.292 87.0185L178.612 15.3078H144.132V0.90625L203.176 0.90332L155.854 83.038C155.854 83.038 151.039 90.7587 147.59 96.7529C147.028 97.7296 144.627 101.263 143.692 102.454C141.925 104.706 140.938 106.052 139.292 107.677C137.716 109.233 136.16 109.995 135.056 110.438C133.348 111.124 131.522 111.47 129.687 111.619C128.124 111.747 127.072 111.828 125.518 111.619C123.58 111.358 123.441 111.291 121.121 110.438C120.146 110.079 118.517 109.111 116.982 108.004C115.276 106.774 114.113 105.678 112.195 103.649C110.507 101.864 109.763 100.805 108.398 98.7619C106.965 96.6173 105.85 95.4309 104.496 93.2355C86.1035 63.4026 59.9861 15.3078 59.9861 15.3078H25.2534L101.895 148.518L116.565 123.23C116.565 123.23 118.576 125.972 125.632 125.743C132.117 125.533 133.676 123.23 133.676 123.23L101.895 177.314L14.4002 25.6371L8.52356 15.3078L0.345215 0.90332Z" fill="#0b0b0b"/>
<circle cx="128.21" cy="45.7212" r="14.7476" fill="#0b0b0b"/>
</svg>
